<svg xmlns="http://www.w3.org/2000/svg" xmlns:xlink="http://www.w3.org/1999/xlink" version="1.1" x="0px" y="0px" viewBox="0 0 193.085 230.867" style="enable-background:new 0 0 193.085 230.867;" xml:space="preserve"><g><path d="M69.083,226.078v-90.531v-28.431c0-2.783,2.266-5.046,5.052-5.046h4.383h1.913V73.253c1.552,1.234,3.176,2.682,4.779,4.373   c3.132,3.338,6.236,7.527,8.697,12.892c1.541,3.358,2.83,7.176,3.705,11.553c0.13,0.65,0.241,1.325,0.353,2   c0.511,3.099,0.821,6.459,0.88,10.11c0.005,0.338,0.024,0.659,0.025,1.002c0,1.867,0.644,3.581,1.717,4.942   c0.157,0.199,0.322,0.391,0.497,0.573c1.457,1.529,3.509,2.486,5.788,2.486c0.275,0,0.547-0.014,0.815-0.041   c0.698-0.071,1.366-0.24,2-0.478c0.76-0.286,1.464-0.683,2.094-1.174c0.804-0.627,1.484-1.403,2-2.29   c0.689-1.182,1.09-2.552,1.09-4.019c0.001-0.341-0.019-0.664-0.022-1.002c-0.026-3.055-0.211-5.979-0.534-8.782   c-0.095-0.827-0.189-1.656-0.308-2.462c-0.659-4.476-1.679-8.604-2.954-12.419c-3.625-10.842-9.36-19.069-15.149-24.843   C86.345,56.064,76.982,52.67,76.273,52.4c-0.378-0.135-0.76-0.23-1.142-0.306c-0.765-0.253-1.58-0.396-2.429-0.396H34.067   c-0.633,0-1.246,0.085-1.835,0.229c-0.792,0.018-1.595,0.153-2.385,0.42c-0.761,0.271-7.993,2.777-15.372,10.315   C7.078,70.143-0.072,83.004,0.001,101.757c0.002,11.218,2.434,24.488,8.385,40.251c1.209,3.203,4.253,5.178,7.487,5.178   c0.939,0,1.894-0.167,2.824-0.518c4.133-1.56,6.218-6.178,4.659-10.311c-5.417-14.341-7.357-25.715-7.354-34.6   c0.073-14.832,5.125-22.887,9.932-27.927c0.135-0.139,0.271-0.266,0.406-0.399v35.449v18.939v90.684   c0,6.828,5.537,12.363,12.365,12.363c6.826,0,12.363-5.535,12.363-12.363v-82.957h4.771v82.957c0,6.828,5.537,12.363,12.365,12.363   c1.164,0,2.285-0.172,3.352-0.473C70.082,229.512,69.083,227.917,69.083,226.078z"></path><ellipse transform="matrix(0.9739 -0.2268 0.2268 0.9739 -3.7117 12.6931)" cx="53.384" cy="22.5" rx="22.495" ry="22.495"></ellipse><path d="M106.873,125.184c-1.942,0-3.75-0.565-5.286-1.526v47.514c0,1.688-1.367,3.053-3.049,3.053H80.567h-0.336   c-1.683,0-3.048-1.365-3.048-3.053v-37.064v-11.735c0-1.688,1.365-3.053,3.048-3.053h0.199h0.137h17.209   c-0.577-1.263-0.907-2.66-0.907-4.136c-0.001-0.34-0.021-0.666-0.026-1.003c-0.058-3.546-0.36-6.913-0.906-10.11H80.43h-0.834   h-5.461c-1.688,0-3.053,1.365-3.053,3.047v28.43v90.531c0,1.682,1.365,3.047,3.053,3.047h0.372h30.126   c1.688,0,3.054-1.365,3.054-3.047v-3.738v-97.196C107.418,125.165,107.147,125.184,106.873,125.184z M80.567,205.348   c1.065-3.873,4.603-6.727,8.817-6.727c5.058,0,9.153,4.103,9.153,9.154c0,5.052-4.096,9.147-9.153,9.147   c-4.214,0-7.752-2.849-8.817-6.721c-0.213-0.774-0.336-1.585-0.336-2.427C80.231,206.934,80.354,206.123,80.567,205.348z"></path><polygon points="98.538,125.419 80.567,125.419 80.43,125.419 80.231,125.419 80.231,129.541 80.231,131.519 80.567,131.519    98.538,131.519  "></polygon><polygon points="98.538,134.573 80.567,134.573 80.231,134.573 80.231,140.673 80.567,140.673 98.538,140.673  "></polygon><polygon points="98.538,149.821 98.538,143.721 80.567,143.721 80.231,143.721 80.231,149.821 80.567,149.821  "></polygon><path d="M150.385,107.117c0-1.682-1.365-3.047-3.048-3.047h-30.503c-0.225,0-0.442,0.027-0.653,0.073   c0.408,3.162,0.644,6.506,0.673,10.037c0.003,0.339,0.018,0.666,0.017,1.008c0,2.831-1.191,5.388-3.091,7.208v99.943v3.738   c0,1.682,1.366,3.047,3.054,3.047h30.503c1.683,0,3.048-1.365,3.048-3.047v-3.738V114.18V107.117z M122.936,174.224   c-1.684,0-3.049-1.365-3.049-3.053v-48.8c0-1.688,1.365-3.053,3.049-3.053h18.302c1.686,0,3.053,1.365,3.053,3.053v48.8   c0,1.688-1.366,3.053-3.053,3.053H122.936z M141.238,207.776c0,5.052-4.098,9.147-9.149,9.147c-5.056,0-9.152-4.096-9.152-9.147   c0-5.052,4.097-9.154,9.152-9.154C137.14,198.622,141.238,202.724,141.238,207.776z"></path><rect x="122.936" y="125.419" width="18.302" height="6.101"></rect><rect x="122.936" y="134.573" width="18.302" height="6.101"></rect><rect x="122.936" y="143.721" width="18.302" height="6.1"></rect><path d="M190.043,104.07h-30.51c-1.682,0-3.048,1.365-3.048,3.047v7.063v108.159v3.738c0,1.682,1.366,3.047,3.048,3.047h30.51   c1.682,0,3.041-1.365,3.041-3.047V107.117C193.085,105.435,191.725,104.07,190.043,104.07z M165.64,174.224   c-1.688,0-3.054-1.365-3.054-3.053v-48.8c0-1.688,1.366-3.053,3.054-3.053h18.296c1.688,0,3.053,1.365,3.053,3.053v48.8   c0,1.688-1.365,3.053-3.053,3.053H165.64z M183.936,207.776c0,5.052-4.096,9.147-9.147,9.147c-5.052,0-9.148-4.096-9.148-9.147   c0-5.052,4.097-9.154,9.148-9.154C179.84,198.622,183.936,202.724,183.936,207.776z"></path><rect x="165.64" y="125.419" width="18.296" height="6.101"></rect><rect x="165.64" y="134.573" width="18.296" height="6.101"></rect><rect x="165.64" y="143.721" width="18.296" height="6.1"></rect></g></svg>